<svg width="359" height="322" viewBox="0 0 359 322" fill="none" xmlns="http://www.w3.org/2000/svg">
<path d="M215.4 201.25H143.6C133.688 201.25 125.65 210.262 125.65 221.375V301.875C125.65 312.988 133.688 322 143.6 322H215.4C225.312 322 233.35 312.988 233.35 301.875V221.375C233.35 210.262 225.312 201.25 215.4 201.25ZM107.7 20.125C107.7 9.01223 99.6618 0 89.75 0H17.95C8.03823 0 0 9.01223 0 20.125V100.625C0 111.738 8.03823 120.75 17.95 120.75H71.6429L112.681 201.275C118.908 189.288 130.362 181.125 143.6 181.125H143.757L107.7 110.379V80.5H233.35V40.25H107.7V20.125ZM341.05 0H269.25C259.338 0 251.3 9.01223 251.3 20.125V100.625C251.3 111.738 259.338 120.75 269.25 120.75H341.05C350.962 120.75 359 111.738 359 100.625V20.125C359 9.01223 350.962 0 341.05 0Z" fill="#4DBBF1"/>
</svg>
